<mxfile host="Electron" agent="Mozilla/5.0 (Macintosh; Intel Mac OS X 10_15_7) AppleWebKit/537.36 (KHTML, like Gecko) draw.io/26.0.9 Chrome/128.0.6613.186 Electron/32.2.5 Safari/537.36" version="26.0.9">
  <diagram name="Page-1" id="4J6IINaf4Di0jHlWNUeV">
    <mxGraphModel dx="2258" dy="1596" grid="1" gridSize="10" guides="1" tooltips="1" connect="1" arrows="1" fold="1" page="1" pageScale="1" pageWidth="850" pageHeight="1100" math="0" shadow="0">
      <root>
        <mxCell id="0" />
        <mxCell id="1" parent="0" />
        <mxCell id="7YpP1YXR0FPzg7dl8Kny-1" value="Auth Microservice" style="rounded=0;whiteSpace=wrap;html=1;" parent="1" vertex="1">
          <mxGeometry x="90" y="250" width="120" height="60" as="geometry" />
        </mxCell>
        <mxCell id="7YpP1YXR0FPzg7dl8Kny-3" style="edgeStyle=orthogonalEdgeStyle;rounded=0;orthogonalLoop=1;jettySize=auto;html=1;exitX=0.5;exitY=1;exitDx=0;exitDy=0;exitPerimeter=0;dashed=1;dashPattern=8 8;" parent="1" source="7YpP1YXR0FPzg7dl8Kny-2" target="7YpP1YXR0FPzg7dl8Kny-1" edge="1">
          <mxGeometry relative="1" as="geometry" />
        </mxCell>
        <mxCell id="7YpP1YXR0FPzg7dl8Kny-2" value="&lt;font style=&quot;font-size: 12px;&quot;&gt;- Users (customer, seller, admin)&lt;br&gt;- User email confirmation&lt;br&gt;&lt;/font&gt;&lt;div style=&quot;&quot;&gt;&lt;span style=&quot;background-color: initial;&quot;&gt;&lt;font style=&quot;font-size: 12px;&quot;&gt;- Refresh/Access tokens&lt;br&gt;- Account creation (user)&lt;/font&gt;&lt;/span&gt;&lt;/div&gt;&lt;div style=&quot;&quot;&gt;&lt;span style=&quot;background-color: initial;&quot;&gt;&lt;font style=&quot;font-size: 12px;&quot;&gt;- Seller&#39;s account creation (admin)&lt;/font&gt;&lt;/span&gt;&lt;/div&gt;" style="shape=note;whiteSpace=wrap;html=1;backgroundOutline=1;darkOpacity=0.05;align=left;" parent="1" vertex="1">
          <mxGeometry x="60" y="20" width="110" height="150" as="geometry" />
        </mxCell>
        <mxCell id="7YpP1YXR0FPzg7dl8Kny-4" value="Products Microservice" style="rounded=0;whiteSpace=wrap;html=1;fontSize=12;" parent="1" vertex="1">
          <mxGeometry x="305" y="250" width="120" height="60" as="geometry" />
        </mxCell>
        <mxCell id="7YpP1YXR0FPzg7dl8Kny-6" style="edgeStyle=orthogonalEdgeStyle;rounded=0;orthogonalLoop=1;jettySize=auto;html=1;exitX=0.5;exitY=1;exitDx=0;exitDy=0;exitPerimeter=0;entryX=0.5;entryY=0;entryDx=0;entryDy=0;dashed=1;dashPattern=8 8;fontSize=12;" parent="1" source="7YpP1YXR0FPzg7dl8Kny-5" target="7YpP1YXR0FPzg7dl8Kny-4" edge="1">
          <mxGeometry relative="1" as="geometry" />
        </mxCell>
        <mxCell id="7YpP1YXR0FPzg7dl8Kny-5" value="- Products CRUD" style="shape=note;whiteSpace=wrap;html=1;backgroundOutline=1;darkOpacity=0.05;align=left;" parent="1" vertex="1">
          <mxGeometry x="270" y="30" width="110" height="150" as="geometry" />
        </mxCell>
        <mxCell id="7YpP1YXR0FPzg7dl8Kny-9" style="edgeStyle=orthogonalEdgeStyle;rounded=0;orthogonalLoop=1;jettySize=auto;html=1;exitX=0.5;exitY=1;exitDx=0;exitDy=0;exitPerimeter=0;dashed=1;dashPattern=8 8;fontSize=12;" parent="1" source="7YpP1YXR0FPzg7dl8Kny-7" target="7YpP1YXR0FPzg7dl8Kny-8" edge="1">
          <mxGeometry relative="1" as="geometry" />
        </mxCell>
        <mxCell id="7YpP1YXR0FPzg7dl8Kny-7" value="- Stars (ratings)&lt;br&gt;- Reviews" style="shape=note;whiteSpace=wrap;html=1;backgroundOutline=1;darkOpacity=0.05;align=left;" parent="1" vertex="1">
          <mxGeometry x="480" y="30" width="110" height="150" as="geometry" />
        </mxCell>
        <mxCell id="7YpP1YXR0FPzg7dl8Kny-8" value="Feedback Microservice" style="rounded=0;whiteSpace=wrap;html=1;fontSize=12;" parent="1" vertex="1">
          <mxGeometry x="490" y="250" width="120" height="60" as="geometry" />
        </mxCell>
        <mxCell id="7YpP1YXR0FPzg7dl8Kny-10" value="Cart Microservice" style="rounded=0;whiteSpace=wrap;html=1;fontSize=12;" parent="1" vertex="1">
          <mxGeometry x="500" y="570" width="120" height="60" as="geometry" />
        </mxCell>
        <mxCell id="7YpP1YXR0FPzg7dl8Kny-12" style="edgeStyle=orthogonalEdgeStyle;rounded=0;orthogonalLoop=1;jettySize=auto;html=1;exitX=0.5;exitY=1;exitDx=0;exitDy=0;exitPerimeter=0;entryX=0.5;entryY=0;entryDx=0;entryDy=0;dashed=1;dashPattern=8 8;fontSize=12;" parent="1" source="7YpP1YXR0FPzg7dl8Kny-11" target="7YpP1YXR0FPzg7dl8Kny-10" edge="1">
          <mxGeometry relative="1" as="geometry" />
        </mxCell>
        <mxCell id="7YpP1YXR0FPzg7dl8Kny-11" value="- Cart Positions CRUD" style="shape=note;whiteSpace=wrap;html=1;backgroundOutline=1;darkOpacity=0.05;align=left;" parent="1" vertex="1">
          <mxGeometry x="480" y="350" width="110" height="150" as="geometry" />
        </mxCell>
        <mxCell id="7YpP1YXR0FPzg7dl8Kny-13" value="Order Management&lt;br&gt;Microservice" style="rounded=0;whiteSpace=wrap;html=1;fontSize=12;" parent="1" vertex="1">
          <mxGeometry x="670" y="570" width="120" height="60" as="geometry" />
        </mxCell>
        <mxCell id="7YpP1YXR0FPzg7dl8Kny-15" style="edgeStyle=orthogonalEdgeStyle;rounded=0;orthogonalLoop=1;jettySize=auto;html=1;exitX=0.5;exitY=1;exitDx=0;exitDy=0;exitPerimeter=0;dashed=1;dashPattern=8 8;fontSize=12;" parent="1" source="7YpP1YXR0FPzg7dl8Kny-14" target="7YpP1YXR0FPzg7dl8Kny-13" edge="1">
          <mxGeometry relative="1" as="geometry" />
        </mxCell>
        <mxCell id="7YpP1YXR0FPzg7dl8Kny-14" value="- Order Creation (user)&lt;br&gt;- Order Processing (seller)" style="shape=note;whiteSpace=wrap;html=1;backgroundOutline=1;darkOpacity=0.05;align=left;" parent="1" vertex="1">
          <mxGeometry x="670" y="350" width="110" height="150" as="geometry" />
        </mxCell>
        <mxCell id="7YpP1YXR0FPzg7dl8Kny-16" value="Catalog Microservice" style="rounded=0;whiteSpace=wrap;html=1;fontSize=12;" parent="1" vertex="1">
          <mxGeometry x="125" y="570" width="120" height="60" as="geometry" />
        </mxCell>
        <mxCell id="7YpP1YXR0FPzg7dl8Kny-17" style="edgeStyle=orthogonalEdgeStyle;rounded=0;orthogonalLoop=1;jettySize=auto;html=1;exitX=0.5;exitY=1;exitDx=0;exitDy=0;exitPerimeter=0;entryX=0.5;entryY=0;entryDx=0;entryDy=0;dashed=1;dashPattern=8 8;fontSize=12;" parent="1" source="7YpP1YXR0FPzg7dl8Kny-18" target="7YpP1YXR0FPzg7dl8Kny-16" edge="1">
          <mxGeometry relative="1" as="geometry" />
        </mxCell>
        <mxCell id="7YpP1YXR0FPzg7dl8Kny-18" value="- Personal Recommendations&lt;br&gt;- Advertising for sellers&lt;br&gt;- Recommendation based on users preferences" style="shape=note;whiteSpace=wrap;html=1;backgroundOutline=1;darkOpacity=0.05;align=left;" parent="1" vertex="1">
          <mxGeometry x="90" y="350" width="110" height="150" as="geometry" />
        </mxCell>
        <mxCell id="7YpP1YXR0FPzg7dl8Kny-19" value="Auth" style="rounded=0;whiteSpace=wrap;html=1;" parent="1" vertex="1">
          <mxGeometry x="110" y="880" width="80" height="60" as="geometry" />
        </mxCell>
        <mxCell id="7YpP1YXR0FPzg7dl8Kny-20" value="BFF/API Gateway" style="rounded=0;whiteSpace=wrap;html=1;fillColor=#fff2cc;strokeColor=default;labelBorderColor=none;" parent="1" vertex="1">
          <mxGeometry x="280" y="980" width="120" height="60" as="geometry" />
        </mxCell>
        <mxCell id="7YpP1YXR0FPzg7dl8Kny-22" value="Products" style="rounded=0;whiteSpace=wrap;html=1;fontSize=12;" parent="1" vertex="1">
          <mxGeometry x="160" y="800" width="85" height="60" as="geometry" />
        </mxCell>
        <mxCell id="7YpP1YXR0FPzg7dl8Kny-24" value="Feedback" style="rounded=0;whiteSpace=wrap;html=1;fontSize=12;" parent="1" vertex="1">
          <mxGeometry x="260" y="800" width="80" height="60" as="geometry" />
        </mxCell>
        <mxCell id="7YpP1YXR0FPzg7dl8Kny-26" value="" style="endArrow=classic;html=1;rounded=0;strokeColor=#000000;fontSize=12;entryX=0.5;entryY=1;entryDx=0;entryDy=0;exitX=0.5;exitY=0;exitDx=0;exitDy=0;" parent="1" source="7YpP1YXR0FPzg7dl8Kny-20" target="7YpP1YXR0FPzg7dl8Kny-19" edge="1">
          <mxGeometry width="50" height="50" relative="1" as="geometry">
            <mxPoint x="520" y="870" as="sourcePoint" />
            <mxPoint x="570" y="820" as="targetPoint" />
          </mxGeometry>
        </mxCell>
        <mxCell id="7YpP1YXR0FPzg7dl8Kny-27" value="" style="endArrow=classic;html=1;rounded=0;strokeColor=#000000;fontSize=12;exitX=0.5;exitY=0;exitDx=0;exitDy=0;entryX=0.5;entryY=1;entryDx=0;entryDy=0;" parent="1" source="7YpP1YXR0FPzg7dl8Kny-20" target="7YpP1YXR0FPzg7dl8Kny-22" edge="1">
          <mxGeometry width="50" height="50" relative="1" as="geometry">
            <mxPoint x="520" y="870" as="sourcePoint" />
            <mxPoint x="570" y="820" as="targetPoint" />
          </mxGeometry>
        </mxCell>
        <mxCell id="7YpP1YXR0FPzg7dl8Kny-29" value="" style="endArrow=classic;html=1;rounded=0;strokeColor=#000000;fontSize=12;entryX=0.5;entryY=1;entryDx=0;entryDy=0;" parent="1" target="7YpP1YXR0FPzg7dl8Kny-24" edge="1">
          <mxGeometry width="50" height="50" relative="1" as="geometry">
            <mxPoint x="340" y="980" as="sourcePoint" />
            <mxPoint x="390" y="930" as="targetPoint" />
          </mxGeometry>
        </mxCell>
        <mxCell id="7YpP1YXR0FPzg7dl8Kny-30" value="" style="endArrow=classic;html=1;rounded=0;strokeColor=#000000;fontSize=12;exitX=0.5;exitY=0;exitDx=0;exitDy=0;entryX=0.5;entryY=1;entryDx=0;entryDy=0;" parent="1" source="7YpP1YXR0FPzg7dl8Kny-20" target="7YpP1YXR0FPzg7dl8Kny-31" edge="1">
          <mxGeometry width="50" height="50" relative="1" as="geometry">
            <mxPoint x="350" y="990" as="sourcePoint" />
            <mxPoint x="400" y="940" as="targetPoint" />
          </mxGeometry>
        </mxCell>
        <mxCell id="7YpP1YXR0FPzg7dl8Kny-31" value="Cart" style="rounded=0;whiteSpace=wrap;html=1;fontSize=12;" parent="1" vertex="1">
          <mxGeometry x="370" y="800" width="80" height="60" as="geometry" />
        </mxCell>
        <mxCell id="7YpP1YXR0FPzg7dl8Kny-32" value="Order" style="rounded=0;whiteSpace=wrap;html=1;fontSize=12;" parent="1" vertex="1">
          <mxGeometry x="470" y="820" width="90" height="60" as="geometry" />
        </mxCell>
        <mxCell id="7YpP1YXR0FPzg7dl8Kny-34" value="" style="endArrow=classic;html=1;rounded=0;strokeColor=#000000;fontSize=12;entryX=0.5;entryY=1;entryDx=0;entryDy=0;" parent="1" target="7YpP1YXR0FPzg7dl8Kny-32" edge="1">
          <mxGeometry width="50" height="50" relative="1" as="geometry">
            <mxPoint x="340" y="980" as="sourcePoint" />
            <mxPoint x="390" y="930" as="targetPoint" />
          </mxGeometry>
        </mxCell>
        <mxCell id="7YpP1YXR0FPzg7dl8Kny-35" value="Catalog" style="rounded=0;whiteSpace=wrap;html=1;fontSize=12;" parent="1" vertex="1">
          <mxGeometry x="520" y="920" width="80" height="60" as="geometry" />
        </mxCell>
        <mxCell id="7YpP1YXR0FPzg7dl8Kny-37" value="" style="endArrow=classic;html=1;rounded=0;strokeColor=#000000;fontSize=12;entryX=0;entryY=0.5;entryDx=0;entryDy=0;" parent="1" target="7YpP1YXR0FPzg7dl8Kny-35" edge="1">
          <mxGeometry width="50" height="50" relative="1" as="geometry">
            <mxPoint x="400" y="1010" as="sourcePoint" />
            <mxPoint x="450" y="960" as="targetPoint" />
          </mxGeometry>
        </mxCell>
        <mxCell id="K0b_FuTM9Q_d_QSZs4Wn-2" value="Payments" style="rounded=0;whiteSpace=wrap;html=1;fontSize=12;" vertex="1" parent="1">
          <mxGeometry x="550" y="1010" width="80" height="60" as="geometry" />
        </mxCell>
        <mxCell id="K0b_FuTM9Q_d_QSZs4Wn-4" value="" style="endArrow=classic;html=1;rounded=0;strokeColor=#000000;fontSize=12;entryX=0;entryY=0.5;entryDx=0;entryDy=0;exitX=1;exitY=0.5;exitDx=0;exitDy=0;" edge="1" parent="1" source="7YpP1YXR0FPzg7dl8Kny-20" target="K0b_FuTM9Q_d_QSZs4Wn-2">
          <mxGeometry width="50" height="50" relative="1" as="geometry">
            <mxPoint x="410" y="1020" as="sourcePoint" />
            <mxPoint x="530" y="960" as="targetPoint" />
          </mxGeometry>
        </mxCell>
      </root>
    </mxGraphModel>
  </diagram>
</mxfile>
